<svg width="60" height="60" viewBox="0 0 60 60" fill="none" xmlns="http://www.w3.org/2000/svg">
<path fill-rule="evenodd" clip-rule="evenodd" d="M38 2C47.4281 2 52.1424 1.99978 55.0713 4.92871C58.0002 7.85764 58 12.5719 58 22V38C58 47.4281 58.0002 52.1424 55.0713 55.0713C52.1424 58.0002 47.4281 58 38 58H22C12.5719 58 7.85764 58.0002 4.92871 55.0713C1.99978 52.1424 2 47.4281 2 38V22C2 12.5719 1.99978 7.85764 4.92871 4.92871C7.85764 1.99978 12.5719 2 22 2H38ZM49.5 15.5498C48.147 14.1693 45.9303 14.1471 44.5498 15.5L23.374 36.251C22.8806 35.824 22.3364 35.3523 21.7666 34.8545C19.5282 32.8988 16.9668 30.6171 15.4492 29.1299C14.0686 27.7772 11.8529 27.7992 10.5 29.1797C9.14719 30.5601 9.16967 32.7759 10.5498 34.1289C12.2295 35.775 14.9336 38.1798 17.1611 40.126C18.2866 41.1093 19.3111 41.9927 20.0537 42.6309C20.4252 42.95 20.7266 43.2082 20.9355 43.3867C21.04 43.4759 21.1213 43.5455 21.1768 43.5928C21.2043 43.6163 21.2258 43.6342 21.2402 43.6465C21.2475 43.6526 21.2531 43.6579 21.2568 43.6611C21.2587 43.6627 21.2617 43.665 21.2617 43.665L21.2627 43.666L21.3945 43.7725C22.7693 44.833 24.7281 44.7273 25.9805 43.5L49.4502 20.5C50.8307 19.147 50.8529 16.9303 49.5 15.5498Z" fill="#5CCAA7"/>
</svg>
