<svg width="24" height="24" viewBox="0 0 24 24" fill="none" xmlns="http://www.w3.org/2000/svg">
<path d="M13.5177 19.0711C12.2921 20.2967 10.8189 20.9096 9.09831 20.9096C7.37768 20.9096 5.90454 20.2967 4.67889 19.0711C3.45324 17.8454 2.84042 16.3723 2.84042 14.6517C2.84042 12.931 3.45324 11.4579 4.67889 10.2322L11.2196 3.6915C12.1035 2.80762 13.1642 2.36568 14.4016 2.36568C15.639 2.36568 16.6997 2.80762 17.5836 3.6915C18.4675 4.57539 18.9094 5.63605 18.9094 6.87348C18.9094 8.11092 18.4675 9.17158 17.5836 10.0555L11.3964 16.2426C10.8543 16.7848 10.2061 17.0558 9.45186 17.0558C8.69762 17.0558 8.04944 16.7848 7.50732 16.2426C6.96521 15.7005 6.69415 15.0524 6.69415 14.2981C6.69415 13.5439 6.96521 12.8957 7.50732 12.3536L14.0481 5.81282L15.4623 7.22704L8.92153 13.7678C8.76833 13.921 8.69172 14.0978 8.69172 14.2981C8.69172 14.4985 8.76833 14.6752 8.92153 14.8284C9.07474 14.9816 9.25152 15.0582 9.45186 15.0582C9.65221 15.0582 9.82899 14.9816 9.98219 14.8284L16.1694 8.64125C16.6526 8.13449 16.8971 7.54229 16.903 6.86464C16.9089 6.187 16.6644 5.60069 16.1694 5.10572C15.6744 4.61074 15.0851 4.36325 14.4016 4.36325C13.7181 4.36325 13.1288 4.61074 12.6338 5.10572L6.09311 11.6465C5.24458 12.4714 4.82326 13.4702 4.82915 14.6428C4.83505 15.8154 5.25636 16.8201 6.09311 17.6569C6.91806 18.4818 7.91096 18.8914 9.07179 18.8855C10.2326 18.8796 11.2432 18.47 12.1035 17.6569L18.9978 10.7626L20.412 12.1768L13.5177 19.0711Z" fill="#586985"/>
</svg>
