<svg width="567" height="516" viewBox="0 0 567 516" fill="none" xmlns="http://www.w3.org/2000/svg">
<path d="M526.351 504.904C536.1 506.095 545.921 507.053 555.808 507.772L556.46 498.8C546.72 498.091 537.045 497.147 527.441 495.974L526.351 504.904Z" fill="#DFDFDF"/>
<path d="M468.036 494.853C477.63 496.998 487.31 498.915 497.07 500.598L498.598 491.729C488.984 490.072 479.449 488.185 469.999 486.071L468.036 494.853Z" fill="#DFDFDF"/>
<path d="M410.994 479.099C420.337 482.184 429.781 485.046 439.32 487.681L441.715 479.008C432.32 476.413 423.018 473.593 413.815 470.555L410.994 479.099Z" fill="#DFDFDF"/>
<path d="M355.786 457.788C364.786 461.783 373.902 465.565 383.127 469.126L386.367 460.731C377.281 457.224 368.301 453.499 359.437 449.563L355.786 457.788Z" fill="#DFDFDF"/>
<path d="M302.945 431.139C311.514 436.003 320.213 440.665 329.037 445.115L333.089 437.08C324.398 432.697 315.828 428.106 307.388 423.314L302.945 431.139Z" fill="#DFDFDF"/>
<path d="M252.978 399.432C261.033 405.115 269.234 410.606 277.573 415.898L282.394 408.301C274.178 403.088 266.099 397.679 258.164 392.08L252.978 399.432Z" fill="#DFDFDF"/>
<path d="M206.347 362.99C213.812 369.436 221.438 375.701 229.217 381.78L234.757 374.691C227.094 368.703 219.581 362.531 212.227 356.181L206.347 362.99Z" fill="#DFDFDF"/>
<path d="M163.49 322.178C170.295 329.323 177.274 336.302 184.42 343.107L190.626 336.591C183.586 329.887 176.711 323.011 170.007 315.972L163.49 322.178Z" fill="#DFDFDF"/>
<path d="M124.817 277.381C130.896 285.159 137.162 292.785 143.607 300.251L150.417 294.371C144.067 287.016 137.895 279.504 131.906 271.841L124.817 277.381Z" fill="#DFDFDF"/>
<path d="M90.6992 229.024C95.9912 237.364 101.482 245.565 107.166 253.62L114.518 248.434C108.919 240.498 103.51 232.419 98.2969 224.204L90.6992 229.024Z" fill="#DFDFDF"/>
<path d="M61.4824 177.561C65.9328 186.384 70.5944 195.084 75.459 203.652L83.2832 199.21C78.4915 190.769 73.9012 182.199 69.5176 173.508L61.4824 177.561Z" fill="#DFDFDF"/>
<path d="M37.4717 123.471C41.0328 132.696 44.8142 141.812 48.8096 150.812L57.0342 147.161C53.0989 138.296 49.3738 129.317 45.8662 120.23L37.4717 123.471Z" fill="#DFDFDF"/>
<path d="M18.917 67.2773C21.5514 76.8163 24.4139 86.2605 27.499 95.6035L36.043 92.7822C33.0042 83.5797 30.1845 74.2773 27.5898 64.8818L18.917 67.2773Z" fill="#DFDFDF"/>
<path d="M6 9.52734C7.68226 19.2878 9.59962 28.9677 11.7451 38.5615L20.5264 36.5986C18.4131 27.1491 16.5251 17.6141 14.8682 8L6 9.52734Z" fill="#DFDFDF"/>
</svg>
