<svg width="567" height="516" viewBox="0 0 567 516" fill="none" xmlns="http://www.w3.org/2000/svg">
<path d="M36.1094 504.904C26.3603 506.095 16.5395 507.053 6.65234 507.772L6 498.8C15.7403 498.091 25.4151 497.147 35.0186 495.974L36.1094 504.904Z" fill="#DFDFDF"/>
<path d="M94.4238 494.853C84.83 496.998 75.1501 498.915 65.3896 500.598L63.8623 491.729C73.4764 490.072 83.0114 488.185 92.4609 486.071L94.4238 494.853Z" fill="#DFDFDF"/>
<path d="M151.466 479.099C142.123 482.184 132.679 485.046 123.14 487.681L120.745 479.008C130.14 476.413 139.442 473.593 148.645 470.555L151.466 479.099Z" fill="#DFDFDF"/>
<path d="M206.674 457.788C197.674 461.783 188.558 465.565 179.333 469.126L176.093 460.731C185.179 457.224 194.159 453.499 203.023 449.563L206.674 457.788Z" fill="#DFDFDF"/>
<path d="M259.515 431.139C250.946 436.003 242.247 440.665 233.423 445.115L229.371 437.08C238.062 432.697 246.632 428.106 255.072 423.314L259.515 431.139Z" fill="#DFDFDF"/>
<path d="M309.482 399.432C301.427 405.115 293.226 410.606 284.887 415.898L280.066 408.301C288.282 403.088 296.361 397.679 304.296 392.08L309.482 399.432Z" fill="#DFDFDF"/>
<path d="M356.113 362.99C348.647 369.436 341.022 375.701 333.243 381.78L327.703 374.691C335.366 368.703 342.879 362.531 350.233 356.181L356.113 362.99Z" fill="#DFDFDF"/>
<path d="M398.97 322.178C392.164 329.323 385.186 336.302 378.04 343.107L371.834 336.591C378.874 329.887 385.749 323.011 392.453 315.972L398.97 322.178Z" fill="#DFDFDF"/>
<path d="M437.643 277.381C431.564 285.159 425.298 292.785 418.853 300.251L412.043 294.371C418.393 287.016 424.565 279.504 430.554 271.841L437.643 277.381Z" fill="#DFDFDF"/>
<path d="M471.761 229.024C466.469 237.364 460.977 245.565 455.294 253.62L447.942 248.434C453.541 240.498 458.95 232.419 464.163 224.204L471.761 229.024Z" fill="#DFDFDF"/>
<path d="M500.978 177.561C496.527 186.384 491.866 195.084 487.001 203.652L479.177 199.21C483.969 190.769 488.559 182.199 492.942 173.508L500.978 177.561Z" fill="#DFDFDF"/>
<path d="M524.988 123.471C521.427 132.696 517.646 141.812 513.65 150.812L505.426 147.161C509.361 138.296 513.086 129.317 516.594 120.23L524.988 123.471Z" fill="#DFDFDF"/>
<path d="M543.543 67.2773C540.909 76.8163 538.046 86.2605 534.961 95.6035L526.417 92.7822C529.456 83.5797 532.275 74.2773 534.87 64.8818L543.543 67.2773Z" fill="#DFDFDF"/>
<path d="M556.46 9.52734C554.778 19.2878 552.86 28.9677 550.715 38.5615L541.934 36.5986C544.047 27.1491 545.935 17.6141 547.592 8L556.46 9.52734Z" fill="#DFDFDF"/>
</svg>
