<svg width="116" height="38" viewBox="0 0 116 38" fill="none" xmlns="http://www.w3.org/2000/svg">
<path d="M61.01 10.0571C61.01 11.3143 59.968 12.4 58.6367 12.4C57.3054 12.4 56.2634 11.3714 56.2634 10.0571C56.2634 8.74282 57.2475 7.71425 58.6367 7.71425C60.0259 7.82854 61.01 8.85711 61.01 10.0571ZM51.3433 14.7428C51.3433 14.9714 51.3433 15.3142 51.3433 15.3142C51.3433 15.3142 50.2435 13.8857 47.8702 13.8857C43.9341 13.8857 40.8662 16.8571 40.8662 20.9142C40.8662 24.9714 43.8762 27.9428 47.8702 27.9428C50.3014 27.9428 51.3433 26.4571 51.3433 26.4571V27.0857C51.3433 27.3714 51.5748 27.6 51.8642 27.6H54.7585V14.2285C54.7585 14.2285 52.0958 14.2285 51.8642 14.2285C51.5748 14.2285 51.3433 14.5142 51.3433 14.7428ZM51.3433 23.3142C50.8223 24.1142 49.7225 24.8 48.4491 24.8C46.1337 24.8 44.3972 23.3714 44.3972 20.9714C44.3972 18.5714 46.1916 17.1428 48.4491 17.1428C49.7225 17.1428 50.8802 17.8285 51.3433 18.6285V23.3142ZM56.9581 14.2285H60.4311V27.6H56.9581V14.2285ZM108.649 13.8857C106.275 13.8857 105.176 15.3142 105.176 15.3142V7.82854H101.703V27.6571C101.703 27.6571 104.365 27.6571 104.597 27.6571C104.886 27.6571 105.118 27.4285 105.118 27.1428V26.5142C105.118 26.5142 106.218 28 108.591 28C112.527 28 115.595 25.0285 115.595 20.9714C115.653 16.8571 112.585 13.8857 108.649 13.8857ZM108.07 24.7428C106.738 24.7428 105.697 24.0571 105.176 23.2571V18.4571C105.697 17.7714 106.854 16.9714 108.07 16.9714C110.385 16.9714 112.122 18.4 112.122 20.8C112.122 23.2 110.385 24.7428 108.07 24.7428ZM99.9082 19.7143V27.7142H96.4351V20.1143C96.4351 17.8857 95.7405 17.0285 93.7724 17.0285C92.7305 17.0285 91.6307 17.5428 90.9361 18.3428V27.6571H87.463V14.2285H90.1836C90.473 14.2285 90.7046 14.4571 90.7046 14.7428V15.3142C91.6886 14.2857 93.0778 13.8857 94.4092 13.8857C95.9141 13.8857 97.1876 14.2857 98.1716 15.1428C99.4451 16.1714 99.9082 17.4285 99.9082 19.7143ZM79.0698 13.8857C76.6966 13.8857 75.5968 15.3142 75.5968 15.3142V7.82854H72.1237V27.6571C72.1237 27.6571 74.7864 27.6571 75.0179 27.6571C75.3074 27.6571 75.5389 27.4285 75.5389 27.1428V26.5142C75.5389 26.5142 76.6387 28 79.0119 28C82.9481 28 86.0159 25.0285 86.0159 20.9714C86.0738 16.8571 83.006 13.8857 79.0698 13.8857ZM78.491 24.7428C77.1597 24.7428 76.1177 24.0571 75.5968 23.2571V18.4571C76.1177 17.7714 77.2754 16.9714 78.491 16.9714C80.8064 16.9714 82.5429 18.4 82.5429 20.8C82.5429 23.2 80.8064 24.7428 78.491 24.7428ZM69.1137 13.8857C70.1557 13.8857 70.6766 14.0571 70.6766 14.0571V17.2C70.6766 17.2 67.7824 16.2285 65.988 18.2857V27.6571H62.5149V14.2285C62.5149 14.2285 65.1776 14.2285 65.4092 14.2285C65.6986 14.2285 65.9301 14.4571 65.9301 14.7428V15.3142C66.6247 14.5714 68.0718 13.8857 69.1137 13.8857ZM33.1676 26.4571C32.994 26.0571 32.8203 25.5428 32.6467 25.2C32.3573 24.5714 32.0678 23.9428 31.8363 23.3714L31.7784 23.3142C29.2894 18 26.6267 12.5714 23.7904 7.19997L23.6746 6.97139C23.3852 6.45711 23.0958 5.88568 22.8064 5.31425C22.4591 4.68568 22.1117 3.99996 21.5329 3.37139C20.3752 1.94282 18.6966 1.14282 16.96 1.14282C15.1656 1.14282 13.5449 1.94282 12.3293 3.25711C11.7505 3.94282 11.3453 4.57139 10.998 5.25711C10.7086 5.82854 10.4191 6.39996 10.1297 6.91425L10.0139 7.14282C7.2355 12.4571 4.51494 17.8857 2.02592 23.2571L1.96803 23.3142C1.7365 23.8857 1.44707 24.5142 1.15765 25.1428C0.984 25.5428 0.810347 25.9428 0.636695 26.4C0.173621 27.7143 -3.19034e-05 28.9714 0.231505 30.2285C0.636695 32.9142 2.43111 35.1428 4.92013 36.1143C5.84628 36.5142 6.83031 36.6857 7.81434 36.6857C8.10376 36.6857 8.45107 36.6285 8.74049 36.6285C9.95606 36.5142 11.1716 36.1143 12.3293 35.4285C13.8343 34.6285 15.2235 33.4285 16.7864 31.7142C18.3493 33.4285 19.7964 34.5714 21.2435 35.4285C22.4591 36.1143 23.6746 36.5142 24.8323 36.6285C25.1217 36.6857 25.469 36.6857 25.7585 36.6857C26.7425 36.6857 27.7844 36.5142 28.6527 36.1143C31.1996 35.1428 32.9361 32.8571 33.3413 30.2285C33.7465 28.9714 33.6307 27.7714 33.1676 26.4571ZM16.9022 28.2857C14.9341 25.8857 13.7185 23.6 13.2555 21.6571C13.0818 20.8571 13.0239 20.1142 13.1397 19.4857C13.1976 18.9142 13.4291 18.4 13.7185 18C14.4131 17.0285 15.5708 16.4571 16.9022 16.4571C18.2335 16.4571 19.4491 17.0285 20.0858 18C20.3752 18.4 20.6068 18.9142 20.6646 19.4857C20.7804 20.1142 20.7225 20.8571 20.5489 21.6571C20.0858 23.5428 18.8123 25.8285 16.9022 28.2857ZM31.2575 29.9428C31.0259 31.7714 29.7525 33.3714 27.9581 34.1143C27.0898 34.4571 26.1636 34.5714 25.2375 34.4571C24.3113 34.3428 23.4431 34.0571 22.5169 33.5428C21.2435 32.8571 19.9121 31.7142 18.4072 30.1143C20.7804 27.2571 22.2275 24.5714 22.7485 22.2285C22.98 21.1428 23.0379 20.1142 22.9221 19.2C22.8064 18.2857 22.4591 17.4857 21.9381 16.8C20.8383 15.2 18.9281 14.2857 16.8443 14.2857C14.7604 14.2857 12.8503 15.2571 11.7505 16.8C11.2295 17.4857 10.9401 18.3428 10.7664 19.2C10.6507 20.1142 10.6507 21.1428 10.9401 22.2285C11.461 24.5714 12.966 27.2571 15.2814 30.1143C13.7764 31.7714 12.4451 32.8571 11.1716 33.5428C10.2455 34.0571 9.31933 34.3428 8.45107 34.4571C7.46703 34.5714 6.54089 34.4 5.73051 34.1143C3.9361 33.4285 2.72053 31.7714 2.43111 29.9428C2.31534 29.0285 2.37322 28.1714 2.77841 27.1428C2.89418 26.8 3.06783 26.4571 3.24149 26C3.47302 25.4285 3.76244 24.8 4.05186 24.2285L4.10975 24.1714C6.59877 18.8571 9.26145 13.4285 12.0399 8.17139L12.1557 7.94282C12.4451 7.42854 12.7345 6.85711 13.0239 6.28568C13.3133 5.71425 13.6606 5.19997 14.008 4.74282C14.7604 3.88568 15.8024 3.42854 16.9022 3.42854C18.002 3.42854 19.0439 3.88568 19.7964 4.74282C20.2016 5.19997 20.491 5.71425 20.7804 6.28568C21.0698 6.79996 21.3593 7.37139 21.6487 7.94282L21.7644 8.17139C24.485 13.4857 27.1477 18.9142 29.6367 24.1714V24.2285C29.9261 24.8 30.1577 25.4285 30.4471 26C30.6207 26.4 30.7944 26.8 30.9102 27.1428C31.3153 28.1143 31.4311 29.0285 31.2575 29.9428Z" fill="#FF5A5F"/>
</svg>
