<svg width="126" height="21" viewBox="0 0 126 21" fill="none" xmlns="http://www.w3.org/2000/svg">
<path d="M13.2666 6.93652C13.5075 7.51194 14.0489 7.90645 14.6709 7.95801L20.5195 8.44141L16.0723 12.2725C15.5995 12.6797 15.393 13.3167 15.5361 13.9238L16.8838 19.6387L11.8682 16.5908L11.7666 16.5342C11.2516 16.2682 10.6319 16.2869 10.1318 16.5908L5.11523 19.6387L6.46387 13.9238C6.60703 13.3167 6.40053 12.6797 5.92773 12.2725L1.47949 8.44141L7.3291 7.95801C7.95105 7.90645 8.49252 7.51194 8.7334 6.93652L11 1.52148L13.2666 6.93652Z" stroke="#FDBF1D" stroke-width="2"/>
<path d="M39.2666 6.93652C39.5075 7.51194 40.0489 7.90645 40.6709 7.95801L46.5195 8.44141L42.0723 12.2725C41.5995 12.6797 41.393 13.3167 41.5361 13.9238L42.8838 19.6387L37.8682 16.5908L37.7666 16.5342C37.2516 16.2682 36.6319 16.2869 36.1318 16.5908L31.1152 19.6387L32.4639 13.9238C32.607 13.3167 32.4005 12.6797 31.9277 12.2725L27.4795 8.44141L33.3291 7.95801C33.9511 7.90645 34.4925 7.51194 34.7334 6.93652L37 1.52148L39.2666 6.93652Z" stroke="#FDBF1D" stroke-width="2"/>
<path d="M65.2666 6.93652C65.5075 7.51194 66.0489 7.90645 66.6709 7.95801L72.5195 8.44141L68.0723 12.2725C67.5995 12.6797 67.393 13.3167 67.5361 13.9238L68.8838 19.6387L63.8682 16.5908L63.7666 16.5342C63.2516 16.2682 62.6319 16.2869 62.1318 16.5908L57.1152 19.6387L58.4639 13.9238C58.607 13.3167 58.4005 12.6797 57.9277 12.2725L53.4795 8.44141L59.3291 7.95801C59.9511 7.90645 60.4925 7.51194 60.7334 6.93652L63 1.52148L65.2666 6.93652Z" stroke="#FDBF1D" stroke-width="2"/>
<path d="M91.2666 6.93652C91.5075 7.51194 92.0489 7.90645 92.6709 7.95801L98.5195 8.44141L94.0723 12.2725C93.5995 12.6797 93.393 13.3167 93.5361 13.9238L94.8838 19.6387L89.8682 16.5908L89.7666 16.5342C89.2516 16.2682 88.6319 16.2869 88.1318 16.5908L83.1152 19.6387L84.4639 13.9238C84.607 13.3167 84.4005 12.6797 83.9277 12.2725L79.4795 8.44141L85.3291 7.95801C85.9511 7.90645 86.4925 7.51194 86.7334 6.93652L89 1.52148L91.2666 6.93652Z" stroke="#FDBF1D" stroke-width="2"/>
<path d="M117.267 6.93652C117.507 7.51194 118.049 7.90645 118.671 7.95801L124.52 8.44141L120.072 12.2725C119.599 12.6797 119.393 13.3167 119.536 13.9238L120.884 19.6387L115.868 16.5908L115.767 16.5342C115.252 16.2682 114.632 16.2869 114.132 16.5908L109.115 19.6387L110.464 13.9238C110.607 13.3167 110.401 12.6797 109.928 12.2725L105.479 8.44141L111.329 7.95801C111.951 7.90645 112.493 7.51194 112.733 6.93652L115 1.52148L117.267 6.93652Z" stroke="#CDD2DC" stroke-width="2"/>
</svg>
