<svg width="44" height="44" viewBox="0 0 44 44" fill="none" xmlns="http://www.w3.org/2000/svg">
<path fill-rule="evenodd" clip-rule="evenodd" d="M22 0C34.1503 0 44 9.84974 44 22C44 34.1503 34.1503 44 22 44C9.84974 44 0 34.1503 0 22C0 9.84974 9.84974 0 22 0ZM31.0557 13.9629C30.2287 13.2307 28.9647 13.3069 28.2324 14.1338L19.6035 23.8789L15.6484 20.1191C14.8481 19.358 13.5825 19.3892 12.8213 20.1895C12.0602 20.9899 12.0922 22.2564 12.8926 23.0176L18.3486 28.2061C18.7419 28.5799 19.2704 28.7791 19.8125 28.7559C20.3547 28.7326 20.8648 28.4892 21.2246 28.083L31.2275 16.7861C31.9597 15.9593 31.8823 14.6952 31.0557 13.9629Z" fill="#5CCAA7"/>
</svg>
